<svg aria-hidden="true" style="position: absolute; width: 0; height: 0; overflow: hidden;" version="1.1" xmlns="http://www.w3.org/2000/svg" xmlns:xlink="http://www.w3.org/1999/xlink">
<defs>
<symbol id="icon-google" viewBox="0 0 32 32">
<path fill="#4285f4" style="fill: var(--color1, #4285f4)" d="M16.32 13.713v5.487h9.075c-0.367 2.353-2.741 6.899-9.075 6.899-5.46 0-9.919-4.519-9.919-10.099s4.46-10.099 9.919-10.099c3.107 0 5.188 1.319 6.38 2.465l4.339-4.184c-2.787-2.601-6.4-4.183-10.719-4.183-8.847 0-16 7.153-16 16s7.153 16 16 16c9.235 0 15.36-6.492 15.36-15.635 0-1.051-0.113-1.853-0.252-2.652z"></path>
</symbol>
<symbol id="icon-search">
<path d="M15.5 14h-.79l-.28-.27A6.471 6.471 0 0 0 16 9.5 6.5 6.5 0 1 0 9.5 16c1.61 0 3.09-.59 4.23-1.57l.27.28v.79l5 4.99L20.49 19l-4.99-5zm-6 0C7.01 14 5 11.99 5 9.5S7.01 5 9.5 5 14 7.01 14 9.5 11.99 14 9.5 14z"></path>
</symbol>
<symbol id="icon-keyboard" viewBox="0 0 20 20">
<path d="M0 6c0-1.1 0.9-2 2-2h16c1.105 0 2 0.895 2 2v0 8c0 1.105-0.895 2-2 2v0h-16c-1.105 0-2-0.895-2-2v0-8zM2 6v2h2v-2h-2zM3 9v2h2v-2h-2zM2 12v2h2v-2h-2zM5 12v2h10v-2h-10zM16 12v2h2v-2h-2zM6 9v2h2v-2h-2zM9 9v2h2v-2h-2zM12 9v2h2v-2h-2zM15 9v2h2v-2h-2zM5 6v2h2v-2h-2zM8 6v2h2v-2h-2zM11 6v2h2v-2h-2zM14 6v2h4v-2h-4z"></path>
</symbol>
<symbol id="microphone">
<path fill="#4285f4" d="m12 15c1.66 0 3-1.31 3-2.97v-7.02c0-1.66-1.34-3.01-3-3.01s-3 1.34-3 3.01v7.02c0 1.66 1.34 2.97 3 2.97z"></path>
<path fill="#34a853" d="m11 18.08h2v3.92h-2z"></path>
<path fill="#fbbc04" d="m7.05 16.87c-1.27-1.33-2.05-2.83-2.05-4.87h2c0 1.45 0.56 2.42 1.47 3.38v0.32l-1.15 1.18z"></path>
<path fill="#ea4335" d="m12 16.93a4.97 5.25 0 0 1 -3.54 -1.55l-1.41 1.49c1.26 1.34 3.02 2.13 4.95 2.13 3.87 0 6.99-2.92 6.99-7h-1.99c0 2.92-2.24 4.93-5 4.93z"></path>
<symbol id="icon-camera" viewBox="0 0 20 20">
<path d="M0 6c0-1.1 0.9-2 2-2h3l2-2h6l2 2h3c1.105 0 2 0.895 2 2v0 10c0 1.105-0.895 2-2 2v0h-16c-1.105 0-2-0.895-2-2v0-10zM10 16c2.761 0 5-2.239 5-5s-2.239-5-5-5v0c-2.761 0-5 2.239-5 5s2.239 5 5 5v0zM10 14c-1.657 0-3-1.343-3-3s1.343-3 3-3v0c1.657 0 3 1.343 3 3s-1.343 3-3 3v0z"></path>
</symbol>
<symbol id="google">
<path id="a" d="M44.5 20H24v8.5h11.8C34.7 33.9 30.1 37 24 37c-7.2 0-13-5.8-13-13s5.8-13 13-13c3.1 0 5.9 1.1 8.1 2.9l6.4-6.4C34.6 4.1 29.6 2 24 2 11.8 2 2 11.8 2 24s9.8 22 22 22c11 0 21-8 21-22 0-1.3-.2-2.7-.5-4z"/></defs><clipPath id="b"><use xlink:href="#a" overflow="visible"/></clipPath><path clip-path="url(#b)" fill="#FBBC05" d="M0 37V11l17 13z"/><path clip-path="url(#b)" fill="#EA4335" d="M0 11l17 13 7-6.1L48 14V0H0z"/><path clip-path="url(#b)" fill="#34A853" d="M0 37l30-23 7.9 1L48 0v48H0z"/><path clip-path="url(#b)" fill="#4285F4" d="M48 48L17 24l-4-3 35-10z"/>
</symbol>
<symbol id="icon-google" viewBox="0 0 32 32">
<path fill="#4285f4" style="fill: var(--color1, #4285f4)" d="M16.32 13.713v5.487h9.075c-0.367 2.353-2.741 6.899-9.075 6.899-5.46 0-9.919-4.519-9.919-10.099s4.46-10.099 9.919-10.099c3.107 0 5.188 1.319 6.38 2.465l4.339-4.184c-2.787-2.601-6.4-4.183-10.719-4.183-8.847 0-16 7.153-16 16s7.153 16 16 16c9.235 0 15.36-6.492 15.36-15.635 0-1.051-0.113-1.853-0.252-2.652z"></path>
</symbol>
</svg>
